<svg class="c-icon" width="36" height="36" viewBox="0 0 36 36" xmlns="http://www.w3.org/2000/svg" fill="none" role="img">
  <title>Vimeo</title>
  <desc>Vimeo Icon</desc>
  <path class="c-icon__content" d="M23.4365 17.2573C22.2155 19.8658 19.268 23.4168 17.405 23.4168C15.569 23.4168 15.3035 19.5013 14.301 16.8953C13.8075 15.6128 13.489 15.9073 12.564 16.5548L12 15.8273C13.349 14.6413 14.699 13.2638 15.5285 13.1873C16.4625 13.0978 17.0375 13.7363 17.2525 15.1033C17.5365 16.8998 17.9335 19.6883 18.6265 19.6883C19.1665 19.6883 20.497 17.4763 20.5655 16.6853C20.687 15.5273 19.714 15.4923 18.8695 15.8538C20.206 11.4768 25.766 12.2828 23.4365 17.2573Z" fill="white"/>
  <circle cx="18" cy="18" r="17.5" stroke="#424242"/>
</svg>
