<svg width="30" height="30" viewBox="0 0 30 30" fill="none" xmlns="http://www.w3.org/2000/svg" role="img">
  <title>Location</title>
  <desc>Location icon</desc>
  <path d="M8.63604 5.63604C10.3239 3.94821 12.6131 3 15 3C17.3869 3 19.6761 3.94821 21.364 5.63604C23.0518 7.32387 24 9.61305 24 12C24 13.6996 23.2246 15.7409 21.8651 18.0431C20.4897 20.3721 18.4462 23.0838 15.7515 26.1537L15 27.0099L14.2485 26.1537C11.5538 23.0838 9.51026 20.3721 8.13493 18.0431C6.77543 15.7409 6 13.6996 6 12C6 9.61305 6.94821 7.32387 8.63604 5.63604ZM15 5C13.1435 5 11.363 5.7375 10.0503 7.05025C8.7375 8.36301 8 10.1435 8 12C8 13.1554 8.55257 14.8171 9.85707 17.0261C11.0207 18.9967 12.7289 21.3142 15 23.9675C17.2711 21.3142 18.9793 18.9967 20.1429 17.0261C21.4474 14.8171 22 13.1554 22 12C22 10.1435 21.2625 8.36301 19.9497 7.05025C18.637 5.7375 16.8565 5 15 5ZM15 10C14.4696 10 13.9609 10.2107 13.5858 10.5858C13.2107 10.9609 13 11.4696 13 12C13 12.5304 13.2107 13.0391 13.5858 13.4142C13.9609 13.7893 14.4696 14 15 14C15.5304 14 16.0391 13.7893 16.4142 13.4142C16.7893 13.0391 17 12.5304 17 12C17 11.4696 16.7893 10.9609 16.4142 10.5858C16.0391 10.2107 15.5304 10 15 10ZM12.1716 9.17157C12.9217 8.42143 13.9391 8 15 8C16.0609 8 17.0783 8.42143 17.8284 9.17157C18.5786 9.92172 19 10.9391 19 12C19 13.0609 18.5786 14.0783 17.8284 14.8284C17.0783 15.5786 16.0609 16 15 16C13.9391 16 12.9217 15.5786 12.1716 14.8284C11.4214 14.0783 11 13.0609 11 12C11 10.9391 11.4214 9.92172 12.1716 9.17157Z" fill="#828282"/>
</svg>
