<svg class="c-icon" width="36" height="36" viewBox="0 0 36 36" xmlns="http://www.w3.org/2000/svg" fill="none" role="img">
  <title>Instagram</title>
  <desc>Instagram Icon</desc>
  <path class="c-icon__content" d="M18 13.0815C19.602 13.0815 19.792 13.0875 20.425 13.1165C22.051 13.1905 22.8105 13.962 22.8845 15.576C22.9135 16.2085 22.919 16.3985 22.919 18.0005C22.919 19.603 22.913 19.7925 22.8845 20.425C22.81 22.0375 22.0525 22.8105 20.425 22.8845C19.792 22.9135 19.603 22.9195 18 22.9195C16.398 22.9195 16.208 22.9135 15.5755 22.8845C13.9455 22.81 13.19 22.035 13.116 20.4245C13.087 19.792 13.081 19.6025 13.081 18C13.081 16.398 13.0875 16.2085 13.116 15.5755C13.1905 13.962 13.948 13.19 15.5755 13.116C16.2085 13.0875 16.398 13.0815 18 13.0815ZM18 12C16.3705 12 16.1665 12.007 15.5265 12.036C13.3475 12.136 12.1365 13.345 12.0365 15.526C12.007 16.1665 12 16.3705 12 18C12 19.6295 12.007 19.834 12.036 20.474C12.136 22.653 13.345 23.864 15.526 23.964C16.1665 23.993 16.3705 24 18 24C19.6295 24 19.834 23.993 20.474 23.964C22.651 23.864 23.865 22.655 23.9635 20.474C23.993 19.834 24 19.6295 24 18C24 16.3705 23.993 16.1665 23.964 15.5265C23.866 13.3495 22.6555 12.1365 20.4745 12.0365C19.834 12.007 19.6295 12 18 12ZM18 14.919C16.2985 14.919 14.919 16.2985 14.919 18C14.919 19.7015 16.2985 21.0815 18 21.0815C19.7015 21.0815 21.081 19.702 21.081 18C21.081 16.2985 19.7015 14.919 18 14.919ZM18 20C16.8955 20 16 19.105 16 18C16 16.8955 16.8955 16 18 16C19.1045 16 20 16.8955 20 18C20 19.105 19.1045 20 18 20ZM21.203 14.0775C20.805 14.0775 20.4825 14.4 20.4825 14.7975C20.4825 15.195 20.805 15.5175 21.203 15.5175C21.6005 15.5175 21.9225 15.195 21.9225 14.7975C21.9225 14.4 21.6005 14.0775 21.203 14.0775Z" fill="#ffffff"/>
  <circle cx="18" cy="18" r="17.5" stroke="#424242"/>
</svg>
