<svg class="c-icon" width="36" height="36" viewBox="0 0 36 36" xmlns="http://www.w3.org/2000/svg" fill="none" role="img">
  <title>Twitter</title>
  <desc>Twitter Icon</desc>
  <path class="c-icon__content" d="M24 14.1545C23.5585 14.3505 23.084 14.4825 22.586 14.542C23.0945 14.2375 23.485 13.755 23.6685 13.18C23.193 13.462 22.666 13.667 22.105 13.7775C21.6565 13.299 21.016 13 20.308 13C18.7185 13 17.5505 14.483 17.9095 16.0225C15.864 15.92 14.05 14.94 12.8355 13.4505C12.1905 14.557 12.501 16.0045 13.597 16.7375C13.194 16.7245 12.814 16.614 12.4825 16.4295C12.4555 17.57 13.273 18.637 14.457 18.8745C14.1105 18.9685 13.731 18.9905 13.345 18.9165C13.658 19.8945 14.567 20.606 15.645 20.626C14.61 21.4375 13.306 21.8 12 21.646C13.0895 22.3445 14.384 22.752 15.774 22.752C20.345 22.752 22.9275 18.8915 22.7715 15.429C23.2525 15.0815 23.67 14.648 24 14.1545V14.1545Z" fill="white"/>
  <circle cx="18" cy="18" r="17.5" stroke="#424242"/>
</svg>
