<svg class="c-logo" width="117" height="32" viewBox="0 0 117 32" fill="none" xmlns="http://www.w3.org/2000/svg">
  <title>GentBlog</title>
  <desc>A blog about Gent</desc>
  <path d="M15.264 22.944c-.32.16-.712.32-1.176.48-.464.16-.952.304-1.464.432s-1.024.232-1.536.312c-.512.08-.968.12-1.368.12-1.376 0-2.608-.176-3.696-.528-1.072-.368-1.992-.912-2.76-1.632-.752-.736-1.328-1.648-1.728-2.736-.4-1.088-.6-2.352-.6-3.792 0-1.568.24-2.896.72-3.984.496-1.104 1.144-2 1.944-2.688a7.697 7.697 0 0 1 2.76-1.536 10.48 10.48 0 0 1 3.144-.48c1.056 0 2.048.072 2.976.216.928.144 1.664.352 2.208.624 0 .24-.016.552-.048.936-.016.368-.048.768-.096 1.2-.048.432-.112.864-.192 1.296a10.13 10.13 0 0 1-.24 1.176h-.984l-1.344-3.648c-.176-.08-.44-.136-.792-.168a7.807 7.807 0 0 0-1.056-.072c-.656 0-1.288.128-1.896.384-.608.256-1.144.672-1.608 1.248-.464.56-.832 1.296-1.104 2.208-.272.896-.408 1.992-.408 3.288 0 1.056.12 2.024.36 2.904.256.864.608 1.608 1.056 2.232A4.99 4.99 0 0 0 7.944 22.2a4.128 4.128 0 0 0 2.064.528 6 6 0 0 0 .744-.048c.256-.048.496-.104.72-.168a3.36 3.36 0 0 0 .576-.216 1.3 1.3 0 0 0 .36-.216v-4.512a4.65 4.65 0 0 1-1.176-.24 6.713 6.713 0 0 1-1.032-.456v-.912h6.552v.912c-.144.144-.336.28-.576.408-.24.112-.544.208-.912.288v5.376zM32.088 24h-6.36v-.936c.192-.112.392-.216.6-.312.208-.096.448-.184.72-.264V17.64c0-1.376-.136-2.384-.408-3.024-.256-.656-.768-.984-1.536-.984-.64 0-1.184.224-1.632.672a3.7 3.7 0 0 0-.96 1.512v6.672c.256.064.48.136.672.216.208.08.424.2.648.36V24h-6.36v-.936a6.687 6.687 0 0 1 1.584-.576V7.944l-1.824-.192v-.936c.24-.096.544-.192.912-.288.384-.096.784-.176 1.2-.24.416-.08.832-.144 1.248-.192a21.3 21.3 0 0 1 1.104-.144h.816v8.472h.024c.16-.368.376-.712.648-1.032.272-.336.576-.624.912-.864a4.504 4.504 0 0 1 1.128-.6c.4-.144.824-.216 1.272-.216.64 0 1.208.08 1.704.24.512.144.936.408 1.272.792.336.384.592.904.768 1.56.176.64.264 1.456.264 2.448v5.736c.272.064.544.136.816.216.272.08.528.2.768.36V24zm11.943-2.016c-.128.272-.336.552-.624.84-.272.272-.616.52-1.032.744-.4.208-.872.376-1.416.504a6.552 6.552 0 0 1-1.728.216c-.992 0-1.872-.144-2.64-.432-.768-.304-1.408-.728-1.92-1.272a5.766 5.766 0 0 1-1.176-1.992c-.256-.768-.384-1.632-.384-2.592 0-2.048.536-3.608 1.608-4.68 1.072-1.072 2.56-1.608 4.464-1.608a7.48 7.48 0 0 1 2.28.336c.72.224 1.312.592 1.776 1.104.48.512.808 1.184.984 2.016.192.832.184 1.848-.024 3.048h-7.368c.016 1.264.336 2.272.96 3.024.64.752 1.576 1.128 2.808 1.128.528 0 1.072-.08 1.632-.24.576-.16 1.024-.368 1.344-.624l.456.48zm-4.944-8.904c-.32 0-.608.056-.864.168-.24.112-.456.32-.648.624-.176.288-.32.688-.432 1.2-.112.496-.192 1.128-.24 1.896h3.864c.112-1.248.04-2.208-.216-2.88-.256-.672-.744-1.008-1.464-1.008zM60.426 24h-6.36v-.936c.208-.112.408-.208.6-.288a8.41 8.41 0 0 1 .72-.288v-5.64c0-1.008-.144-1.792-.432-2.352-.288-.576-.8-.864-1.536-.864-.608 0-1.136.2-1.584.6-.432.384-.76.912-.984 1.584v6.672c.256.064.48.144.672.24.208.08.424.192.648.336V24h-6.36v-.936c.4-.208.928-.4 1.584-.576v-8.784l-1.584-.192v-.936c.208-.096.48-.184.816-.264.336-.096.696-.184 1.08-.264.4-.08.8-.144 1.2-.192.416-.064.792-.112 1.128-.144h.816v2.472h.024c.336-.672.84-1.248 1.512-1.728.672-.496 1.488-.744 2.448-.744.624 0 1.184.08 1.68.24a2.58 2.58 0 0 1 1.248.792c.352.384.616.904.792 1.56.192.64.288 1.456.288 2.448v5.736c.64.112 1.168.304 1.584.576V24zm.469-11.424a6.318 6.318 0 0 1 1.92-.816V9.816c.128-.096.44-.232.936-.408a9.77 9.77 0 0 1 1.704-.456h.816V12h3.168v1.512h-3.168v6.216c0 .992.12 1.68.36 2.064.256.384.672.576 1.248.576.288 0 .608-.016.96-.048a4.652 4.652 0 0 0 1.008-.24l.168.792c-.144.144-.36.296-.648.456-.272.16-.592.312-.96.456a7.276 7.276 0 0 1-1.176.36 5.856 5.856 0 0 1-1.32.144c-1.04 0-1.816-.272-2.328-.816-.512-.544-.768-1.424-.768-2.64v-7.32h-1.92v-.936z" fill="#1d1d1d"/>
  <path d="M71.848 7.2h1.92v5.976h.096a3.721 3.721 0 0 1 1.392-1.08 4.557 4.557 0 0 1 1.872-.384c1.552 0 2.712.496 3.48 1.488.784.992 1.176 2.528 1.176 4.608 0 2.096-.512 3.688-1.536 4.776-1.024 1.088-2.464 1.632-4.32 1.632-.896 0-1.712-.096-2.448-.288-.72-.192-1.264-.4-1.632-.624V7.2zm4.944 6.192c-.8 0-1.448.224-1.944.672-.496.448-.856 1.08-1.08 1.896v6.048c.304.176.672.312 1.104.408.432.08.88.12 1.344.12 1.088 0 1.952-.384 2.592-1.152.656-.768.984-1.968.984-3.6 0-.624-.056-1.208-.168-1.752-.112-.544-.288-1.008-.528-1.392a2.687 2.687 0 0 0-.936-.912c-.368-.224-.824-.336-1.368-.336zm10.153 7.656c0 .56.096.96.288 1.2.192.24.464.36.816.36.208 0 .432-.016.672-.048.24-.032.512-.104.816-.216l.216 1.512c-.256.128-.616.232-1.08.312-.448.08-.84.12-1.176.12-.72 0-1.312-.2-1.776-.6-.464-.416-.696-1.112-.696-2.088V7.2h1.92v13.848zm4.2-3.048c0-2.032.448-3.584 1.344-4.656.912-1.088 2.216-1.632 3.912-1.632.896 0 1.672.152 2.328.456a4.087 4.087 0 0 1 1.656 1.272c.432.544.752 1.208.96 1.992.208.768.312 1.624.312 2.568 0 2.032-.456 3.592-1.368 4.68-.896 1.072-2.192 1.608-3.888 1.608-.896 0-1.68-.144-2.352-.432a4.425 4.425 0 0 1-1.632-1.272c-.432-.56-.752-1.224-.96-1.992-.208-.784-.312-1.648-.312-2.592zm1.992 0c0 .608.056 1.192.168 1.752.128.56.32 1.048.576 1.464.256.416.592.752 1.008 1.008.416.256.92.384 1.512.384 2.176.016 3.264-1.52 3.264-4.608 0-.624-.064-1.216-.192-1.776a4.426 4.426 0 0 0-.552-1.464 2.827 2.827 0 0 0-1.008-.984c-.416-.256-.92-.384-1.512-.384-2.176-.016-3.264 1.52-3.264 4.608zm20.739 6.552c0 1.552-.416 2.696-1.248 3.432-.816.736-2.032 1.104-3.648 1.104-.96 0-1.736-.064-2.328-.192a6.542 6.542 0 0 1-1.488-.456l.504-1.632c.368.144.776.28 1.224.408.448.128 1.032.192 1.752.192.672 0 1.216-.064 1.632-.192.432-.112.776-.312 1.032-.6.256-.272.432-.632.528-1.08.096-.432.144-.952.144-1.56v-1.152h-.096c-.32.464-.728.824-1.224 1.08-.496.24-1.144.36-1.944.36-1.616 0-2.808-.504-3.576-1.512-.752-1.008-1.128-2.576-1.128-4.704 0-2.048.488-3.6 1.464-4.656.976-1.072 2.416-1.608 4.32-1.608.912 0 1.688.072 2.328.216.656.144 1.24.312 1.752.504v12.048zm-4.824-1.968c.816 0 1.456-.2 1.92-.6.464-.416.792-1.056.984-1.92V13.92c-.64-.304-1.456-.456-2.448-.456-1.088 0-1.944.368-2.568 1.104-.624.736-.936 1.888-.936 3.456 0 .672.056 1.288.168 1.848.112.56.288 1.04.528 1.44.24.4.552.712.936.936.384.224.856.336 1.416.336z" fill="#BCBCBC"/>
</svg>
